<svg height="512pt" viewBox="0 0 512 512.00171" width="512pt" xmlns="http://www.w3.org/2000/svg"><path d="m510.808594 305.601562-18.460938-51.464843c-5.441406-28.488281-31.320312-49.097657-61.789062-49.097657h-3.648438v-15.421874c1.304688-1.097657 2.59375-2.25 3.871094-3.453126 11.59375-10.945312 21.945312-26.292968 29.167969-43.242187.027343-.054687.050781-.113281.078125-.171875 9.519531-21.992188 18.09375-44.476562 16.363281-59.984375-6.261719-56.183594-39.65625-79.410156-68.816406-82.414063-4.117188-.4179682-7.804688 2.570313-8.226563 6.691407-.425781 4.121093 2.570313 7.804687 6.691406 8.230469 35.605469 3.667968 51.988282 38.128906 55.445313 69.15625.558594 5-.65625 11.800781-2.667969 18.976562-.953125-4.445312-2.3125-8.746094-4.222656-12.558594-2.441406-4.792968-5.886719-9.105468-10.703125-11.667968-1.332031-.707032-2.734375-1.269532-4.183594-1.691407-10.378906-3-19.953125-3.015625-31.035156-3.035156-13.457031-.019531-28.710937-.046875-51.492187-5.070313-1.089844-.238281-2.183594-.441406-3.289063-.601562-12.695313-1.84375-21.097656 2.667969-26.027344 6.984375-6.730469 5.902344-11.460937 15.089844-14.121093 27.394531-1.636719-6.070312-2.726563-11.867187-2.589844-16.0625.882812-27.089844 5.105468-45.207031 24.089844-57.648437 12.019531-7.875 17.554687-10.585938 37.179687-12.523438 4.121094-.40625 7.132813-4.074219 6.726563-8.199219-.40625-4.121093-4.082032-7.132812-8.199219-6.726562-21.503907 2.121094-29.449219 5.414062-43.929688 14.90625-21.023437 13.777344-29.675781 33.320312-30.859375 69.703125-.53125 16.296875 11.339844 46.492187 16.21875 54.335937 6.738282 16.460938 17.757813 34.320313 32.101563 47.140626v16.957031h-3.679688c-7.90625 0-15.574219 1.375-22.851562 4.09375-12.773438-9.113281-27.859375-13.566407-43.304688-12.652344-36.167969 2.144531-48.253906 11.28125-61.046875 20.960937-.816406.613282-1.636718 1.238282-2.46875 1.859376-11.296875-9.125-25.792968-14.261719-40.679687-14.261719h-3.648438v-15.425781c1.300781-1.097657 2.589844-2.25 3.867188-3.453126 11.59375-10.941406 21.949219-26.292968 29.167969-43.238281.027343-.058593.054687-.117187.078124-.175781 9.523438-21.988281 18.097657-44.476562 16.367188-59.980469-3.050781-27.347656-13.121094-49.574219-29.128906-64.289062-14.070313-12.933594-31.949219-19.453125-50.335938-18.363281-36.167968 2.140624-48.253906 11.285156-61.046875 20.960937-2.875 2.175781-5.847656 4.421875-9.128906 6.574219l-.4375.285156c-19.492187 12.773438-28.914063 20.601562-30.152344 58.671875-.53125 16.296875 11.339844 46.496094 16.21875 54.339844 6.738281 16.460937 17.757813 34.320312 32.101563 47.136719v16.957031h-3.679688c-30.46875 0-56.347656 20.605469-61.792968 49.09375l-18.457032 51.464843c-.824218 2.296876-.4804685 4.851563.925782 6.847657 1.402343 1.996093 3.691406 3.1875 6.132812 3.1875h33.652344c4.144531 0 7.5-3.359375 7.5-7.5 0-4.144531-3.355469-7.5-7.5-7.5h-22.992188l15.0625-42.003907c.140625-.394531.246094-.796874.320313-1.207031 3.894531-21.660156 23.71875-37.382812 47.144531-37.382812h6.3125c4.519531 8.597656 12.011719 15.3125 21 19.148437-1.042969 2.359375-1.621094 4.96875-1.621094 7.710938v10.683594l-11.292968 43.050781h-18.933594c-4.140625 0-7.5 3.355469-7.5 7.5 0 4.140625 3.359375 7.5 7.5 7.5h104.59375c3.332031 9.617187 7.089844 18.042969 9.351562 21.675781 6.738282 16.460938 17.757813 34.320312 32.101563 47.140625v16.957031h-3.679688c-30.46875 0-56.347656 20.605469-61.792969 49.09375l-18.457031 51.464844c-.824219 2.296875-.480469 4.851562.925781 6.847656 1.402344 1.996094 3.691407 3.183594 6.132813 3.183594h236.136719c2.4375 0 4.726562-1.1875 6.132812-3.183594 1.402344-1.996094 1.75-4.550781.925782-6.847656l-6.121094-17.066406c-1.398438-3.898438-5.695313-5.925782-9.59375-4.527344-3.898438 1.398438-5.925782 5.691406-4.527344 9.59375l2.523438 7.03125h-76.929688l-11.289062-42.945312v-10.785157c0-2.742187-.582032-5.351562-1.625-7.710937 6.976562-2.984375 13.160156-7.757813 17.679687-13.863282 1.242187-1.675781 2.355469-3.441406 3.324219-5.285156h6.308594c23.425781 0 43.253906 15.722656 47.144531 37.382813.734375 4.078125 4.636719 6.78125 8.710937 6.054687 4.074219-.730468 6.785156-4.628906 6.054688-8.707031-5.175782-28.816406-31.214844-49.730469-61.910156-49.730469h-3.644532v-15.425781c1.300782-1.097656 2.589844-2.25 3.867188-3.453125 11.59375-10.941406 21.945312-26.292969 29.167968-43.242188.027344-.054687.050782-.113281.078126-.171874 3.410156-7.878907 6.699218-15.820313 9.4375-23.480469h156.566406c2.441406 0 4.726562-1.1875 6.132812-3.183594 1.40625-2 1.753906-4.554687.929688-6.851563zm-184.359375-169.882812c-.847657-14.234375.644531-39.453125 11.429687-48.761719 2.949219-2.542969 6.566406-3.738281 10.96875-3.597656.375.011719.746094.03125 1.117188.0625 1.265625.101563 2.59375.304687 3.984375.613281 2.285156.503906 4.503906.960938 6.65625 1.375 20.835937 4 35.792969 4.027344 48.042969 4.046875 10.359374.015625 18.542968.027344 26.894531 2.441407.03125.011718.058593.019531.089843.027343 1.777344.554688 5.765626 2.976563 8.207032 13.453125 2.402344 10.941406 2.082031 25.378906 1.8125 31.363282-.027344.628906-.054688 1.171874-.070313 1.613281-6.390625 14.5625-15.265625 27.621093-25.097656 36.898437-1.664063 1.574219-3.546875 3.210938-5.621094 4.8125-.011719.007813-.023437.015625-.035156.027344-.125.09375-.25.191406-.375.285156-7.054687 5.355469-16.265625 10.195313-26.757813 10.519532-.898437.027343-1.800781.019531-2.703124-.019532-25.183594-1.089844-47.335938-28.070312-58.542969-55.160156zm57.953125 70.152344c1.082031.042968 2.164062.035156 3.246094.035156 8.226562-.167969 16.347656-2.265625 24.265624-6.253906v11.417968c-1.902343 4.515626-5.089843 8.410157-9.070312 11.261719-4.109375 2.941407-8.988281 4.746094-14.007812 5.273438-1.527344.160156-3.066407.203125-4.601563.128906-1.371094-.066406-2.792969-.484375-4.144531-.484375-8.5625-1.617188-15.898438-6.871094-19.742188-14.261719-.308594-.605469-.5625-1.234375-.867187-1.839843v-12.378907c7.679687 4.148438 16.019531 6.734375 24.921875 7.101563zm-2.914063 41.03125c0-2.28125 1.855469-4.136719 4.136719-4.136719h.113281c2.277344 0 4.132813 1.855469 4.132813 4.136719v4.199218h-8.382813zm-105.957031-35.445313c8.070312-.480469 16.214844.734375 23.664062 3.917969 3.421876 1.464844 6.671876 3.316406 9.6875 5.488281 1.585938 1.140625 2.980469 2.453125 4.460938 3.722657 1.648438 1.414062 3.234375 2.914062 4.691406 4.527343 10.964844 12.171875 17.210938 28.175781 20.070313 44.136719.761719 4.230469 1.460937 8.519531 1.117187 12.828125-.367187 4.636719-1.441406 9.210937-2.691406 13.679687-1.253906-5.839843-3.203125-11.703124-6.636719-16.644531-1.632812-2.351562-3.613281-4.484375-5.972656-6.121093-2.757813-1.910157-5.75-3.003907-8.988281-3.804688-11.941406-2.953125-24.316406-2.238281-36.507813-2.414062-11.0625-.160157-22.066406-1.066407-32.972656-2.941407-6.472656-1.117187-12.9375-3.109375-19.546875-3.109375-5.777344 0-11.507812 1.460938-16.429688 4.519532-9.023437 5.613281-14.078124 15.628906-16.855468 25.570312-.433594 1.558594-.820313 3.128906-1.160156 4.710938-1.582032-5.910157-2.765626-11.835938-2.523438-17.96875.226562-5.585938.585938-11.199219 1.5625-16.707032 1.234375-6.980468 3.699219-13.507812 8.867188-18.519531 2.472656-2.394531 5.289062-4.40625 8.132812-6.332031 4.539062-3.074219 9.113281-6.046875 13.5-9.34375 5.96875-4.492188 11.878906-9.019532 18.746094-12.066406 9.503906-4.21875 19.980468-5.84375 30.265625-6.730469 1.835937-.15625 3.679687-.289063 5.519531-.398438zm-224.488281-124.359375c1.039062-31.972656 6.667969-35.664062 23.378906-46.613281l.4375-.285156c3.707031-2.429688 6.886719-4.832031 9.957031-7.15625 11.875-8.980469 21.257813-16.078125 52.886719-17.949219 38.390625-2.285156 59.640625 33.183594 63.671875 69.335938.558594 5.003906-.660156 11.800781-2.671875 18.980468-.953125-4.449218-2.308594-8.75-4.21875-12.558594-2.445313-4.796874-5.890625-9.105468-10.707031-11.671874-1.328125-.707032-2.734375-1.269532-4.179688-1.6875-10.382812-3-19.953125-3.019532-31.039062-3.035157-13.457032-.023437-28.707032-.046875-51.492188-5.070312-.664062-.144531-1.332031-.277344-2-.394531-2.488281-.4375-4.816406-.632813-6.992187-.632813-9.5625 0-16.175781 3.773437-20.324219 7.410156-6.730469 5.902344-11.460938 15.089844-14.121094 27.394531-1.632812-6.074218-2.722656-11.871093-2.585937-16.066406zm15.292969 48.621094c-.84375-14.234375.644531-39.453125 11.429687-48.761719 4.019531-3.464843 9.277344-4.421875 16.074219-2.921875 2.28125.503906 4.5.957032 6.65625 1.371094 20.832031 4.003906 35.792968 4.027344 48.039062 4.046875 10.359375.019531 18.542969.03125 26.894532 2.445313.03125.007812.0625.019531.089843.027343 1.777344.554688 5.769531 2.976563 8.210938 13.453125 2.402343 10.941406 2.082031 25.378906 1.808593 31.363282-.027343.628906-.050781 1.167968-.066406 1.609374-6.394531 14.566407-15.269531 27.625-25.101562 36.902344-1.664063 1.574219-3.542969 3.210938-5.617188 4.808594-.011718.011719-.027344.019531-.039062.027344-.125.097656-.25.195312-.375.289062-7.050782 5.355469-16.265625 10.191406-26.757813 10.519532-.898437.027343-1.800781.019531-2.699219-.019532-25.1875-1.089844-47.335937-28.070312-58.546874-55.160156zm57.953124 70.152344c1.082032.042968 2.164063.035156 3.246094.035156 8.226563-.167969 16.347656-2.265625 24.265625-6.253906v11.417968c-1.902343 4.515626-5.089843 8.410157-9.070312 11.261719-4.109375 2.941407-8.984375 4.746094-14.007813 5.273438-1.523437.160156-3.066406.203125-4.597656.128906-1.371094-.066406-2.796875-.484375-4.148438-.484375-8.5625-1.617188-15.894531-6.871094-19.742187-14.261719-.308594-.605469-.5625-1.234375-.863281-1.839843v-12.378907c7.675781 4.148438 16.019531 6.734375 24.917968 7.101563zm-2.910156 41.03125c0-2.28125 1.855469-4.136719 4.132813-4.136719h.113281c2.28125 0 4.132812 1.855469 4.132812 4.136719v4.199218h-8.378906zm-10.785156 53.730468 9.058594-34.53125h11.808594l9.078124 34.53125zm45.453125 0-11.289063-42.945312v-10.785156c0-2.648438-.550781-5.289063-1.621093-7.710938 7.078125-3.007812 13.351562-7.910156 17.878906-14.136718 1.160156-1.59375 2.203125-3.269532 3.121094-5.015626h6.308593c9.925782 0 19.601563 2.949219 27.625 8.269532-13.472656 9.414062-20.988281 18.132812-23.4375 42.671875-.421874 4.214843-.726562 8.476562-.769531 12.710937-.054687 4.570313.746094 10.242188 2.390625 16.941406zm107.40625 138.5c2.28125 0 4.136719 1.855469 4.136719 4.136719v4.199219h-8.382813v-4.199219c0-2.28125 1.855469-4.136719 4.136719-4.136719zm-92.402344 15.863282c.140625-.390625.25-.792969.324219-1.203125 3.890625-21.664063 23.71875-37.386719 47.144531-37.386719h6.308594c4.523437 8.601562 12.011719 15.316406 21 19.152344-1.042969 2.359375-1.621094 4.96875-1.621094 7.710937v10.679688l-11.292969 43.050781h-76.925781zm77.371094 42.003906 9.058594-34.53125h11.8125l9.074219 34.53125zm41.207031-100.984375v11.417969c-1.964844 4.683594-5.324218 8.691406-9.5 11.566406-4.171875 2.871094-9.089844 4.589844-14.128906 5.019531-2.746094.238281-5.503906.085938-8.214844-.410156-9.246094-1.75-17.058594-7.75-20.585937-16.097656v-12.378907c7.675781 4.148438 16.015625 6.738282 24.917969 7.101563 1.078124.050781 2.167968.078125 3.25.035156 8.226562-.167969 16.34375-2.261719 24.261718-6.253906zm8.574219-24.394531c-1.675781 1.582031-3.566406 3.226562-5.652344 4.835937-.003906 0-.003906 0-.003906.003907-.097656.070312-.191406.144531-.285156.21875-7.066407 5.378906-16.3125 10.257812-26.847657 10.585937-.898437.027344-1.796874.019531-2.691406-.019531-25.191406-1.085938-47.34375-28.066406-58.554687-55.160156-.84375-14.234376.644531-39.457032 11.429687-48.761719 2.699219-2.328125 5.957032-3.523438 9.867188-3.605469 2.421875-.078125 4.808594.382812 7.164062.890625 3.335938.722656 6.683594 1.378906 10.046875 1.960937 5.773438.996094 11.589844 1.773438 17.425781 2.300782 9.96875.902344 19.941407.910156 29.941407.960937 6.855469.035157 13.773437.183594 20.480469 1.726563.910156.210937 1.824218.445312 2.738281.707031.027343.011719.058593.019531.085937.027344 1.777344.554687 5.769532 2.976562 8.210938 13.453125 2.402344 10.941406 2.082031 25.378906 1.8125 31.367187-.03125.628907-.054688 1.167969-.070313 1.605469-6.390625 14.566406-15.265625 27.625-25.097656 36.902344zm56.054687-90.804688c-.003906-.019531-.003906-.042968-.003906-.0625-.007812-.074218-.011718-.152344-.015625-.226562-.003906-.054688-.007812-.105469-.011719-.15625-.007812-.0625-.011718-.128906-.015624-.191406-.007813-.089844-.015626-.183594-.023438-.273438-.003906-.039062-.007812-.074219-.011719-.109375-.003906-.078125-.011719-.15625-.019531-.234375-.003906-.035156-.007812-.070312-.011719-.101562-.011719-.109376-.019531-.21875-.035156-.328126-2.308594-20.71875-8.277344-36.089843-15.289063-47.402343-2.378906-3.851563-5.003906-7.433594-7.871093-10.738281 3.214843-.632813 6.503906-.953126 9.851562-.953126h6.308594c4.523437 8.601563 12.011719 15.316407 21.003906 19.152344-1.042969 2.359375-1.625 4.96875-1.625 7.710938v10.683594l-11.289062 43.046874h-3.367188c1.832031-7.257812 2.792969-13.984374 2.425781-19.816406zm16.449219 19.816406 9.054688-34.53125h11.8125l9.078125 34.53125zm45.453125 0-11.289062-42.945312v-10.785156c0-2.742188-.582032-5.351563-1.625-7.710938 7.082031-3.019531 13.347656-7.90625 17.882812-14.136718 1.15625-1.59375 2.203125-3.269532 3.121094-5.015626h6.308594c23.425781 0 43.253906 15.722657 47.148437 37.386719.074219.410157.179688.8125.320313 1.207031l15.0625 42zm0 0"/></svg>