<svg xmlns="http://www.w3.org/2000/svg" height="966pt" version="1.1" viewBox="0 -47 966.24852 966" width="966pt">
<g id="surface1">
<path d="M 960.652344 81.671875 L 867.144531 3.75 C 864.335938 1.402344 860.8125 0.125 857.15625 0.125 L 685.71875 0.125 C 683.816406 0.125 681.910156 0.480469 680.128906 1.160156 L 482.917969 77.023438 L 270.171875 1.03125 C 268.492188 0.441406 266.722656 0.140625 264.9375 0.125 L 109.09375 0.125 C 104.960938 0.140625 101 1.769531 98.074219 4.695312 L 4.566406 98.199219 C 1.644531 101.125 0 105.089844 0 109.21875 L 0 857.285156 C 0 863.589844 3.796875 869.269531 9.613281 871.679688 C 15.4375 874.09375 22.144531 872.761719 26.605469 868.300781 L 115.542969 779.363281 L 262.246094 779.363281 L 477.890625 856.386719 C 481.425781 857.636719 485.289062 857.585938 488.792969 856.253906 L 688.621094 779.363281 L 851.515625 779.363281 L 940.667969 853.667969 C 945.320312 857.546875 951.789062 858.386719 957.269531 855.820312 C 962.746094 853.253906 966.25 847.757812 966.25 841.699219 L 966.25 93.632812 C 966.25 89.015625 964.203125 84.632812 960.652344 81.671875 Z M 701.304688 31.296875 L 841.570312 31.296875 L 841.570312 748.191406 L 701.304688 748.191406 Z M 124.679688 31.296875 L 249.355469 31.296875 L 249.355469 748.191406 L 124.679688 748.191406 Z M 31.171875 115.675781 L 93.507812 53.328125 L 93.507812 757.332031 L 31.171875 819.667969 Z M 482.917969 825.089844 L 280.523438 752.875 L 280.523438 37.828125 L 477.890625 108.324219 C 481.425781 109.5625 485.285156 109.515625 488.792969 108.191406 L 670.144531 38.402344 L 670.144531 753.070312 Z M 935.078125 808.429688 L 872.742188 756.472656 L 872.742188 48.988281 L 935.078125 100.933594 Z M 935.078125 808.429688 " style=" stroke:none;fill-rule:nonzero;fill:rgb(0%,0%,0%);fill-opacity:1;" />
<path d="M 451.957031 420.910156 L 514.296875 420.910156 L 514.296875 452.082031 L 451.957031 452.082031 Z M 451.957031 420.910156 " style=" stroke:none;fill-rule:nonzero;fill:rgb(0%,0%,0%);fill-opacity:1;" />
<path d="M 529.878906 420.910156 L 561.050781 420.910156 L 561.050781 452.082031 L 529.878906 452.082031 Z M 529.878906 420.910156 " style=" stroke:none;fill-rule:nonzero;fill:rgb(0%,0%,0%);fill-opacity:1;" />
<path d="M 405.203125 420.910156 L 436.371094 420.910156 L 436.371094 452.082031 L 405.203125 452.082031 Z M 405.203125 420.910156 " style=" stroke:none;fill-rule:nonzero;fill:rgb(0%,0%,0%);fill-opacity:1;" />
</g>
</svg>