<svg height="512pt" viewBox="0 0 512.00539 512" width="512pt" xmlns="http://www.w3.org/2000/svg"><path d="m153.601562 375.46875h-51.203124c-9.425782 0-17.066407 7.640625-17.066407 17.066406v25.21875l-53.699219 34.515625h-14.566406c-9.425781 0-17.066406 7.640625-17.066406 17.066407v34.132812c0 4.714844 3.820312 8.535156 8.535156 8.535156h364.3125c3.515625.011719 6.949219-1.074218 9.820313-3.105468l36.957031-25.730469c5.988281-4.324219 8.511719-12.007813 6.257812-19.039063-2.253906-7.03125-8.769531-11.816406-16.15625-11.859375h-66.6875l24.652344-17.066406h90.453125c3.503907 0 6.921875-1.074219 9.789063-3.082031l37.941406-26.582032c.40625-.277343.789062-.59375 1.140625-.945312 4.875-4.882812 6.332031-12.222656 3.6875-18.597656s-8.867187-10.527344-15.769531-10.527344h-204.800782v-25.597656h135.117188.707031.710938c3.488281 0 6.625-2.125 7.921875-5.363282 1.296875-3.242187.492187-6.941406-2.035156-9.351562-.929688-.851562-85.289063-83.308594-130.464844-270.054688-6.476563-32.167968-11.5625-55.660156-12.152344-58.382812 0-.1875-.171875-.324219-.222656-.503906-.109375-.429688-.257813-.847656-.433594-1.253906-.09375-.238282-.199219-.46875-.316406-.691407-.09375-.164062-.195313-.308593-.300782-.460937-.101562-.152344-.238281-.28125-.339843-.390625-.265625-.304688-.550781-.589844-.851563-.855469-.101562-.15625-.210937-.308594-.324218-.453125-.078126-.058594-.121094-.152344-.199219-.222656-.183594-.128907-.375-.253907-.570313-.363281l-.324218-.222657c-.304688-.160156-.617188-.304687-.9375-.425781-.515626-.253906-1.058594-.453125-1.613282-.589844-.136718 0-.257812-.101562-.394531-.128906h-.09375c-.359375-.027344-.722656-.027344-1.082031 0-.351563-.078125-.707032-.1289062-1.066406-.15234375-.0625 0-.09375 0-.15625 0-.058594 0-.28125.05859375-.425782.08593755-.144531.0234372-.238281 0-.347656 0-.113281 0-.105469 0-.148438 0-.289062.1093752-.574218.2382812-.851562.3828122h-.078125c-.414063.105469-.816406.242188-1.210937.410156l-.316407.289063c-.125.066406-.21875.171875-.339843.246094-.328126.230469-.636719.488281-.921876.769531-.304687.238281-.589843.496094-.851562.777344-.066406.050781-.132812.109375-.1875.167968-.136719.128907-.191406.285157-.257812.453126-.226563.339843-.425782.691406-.605469 1.058593-.1875.304688-.355469.617188-.503907.9375 0 .0625-.066406.105469-.09375.164063-74.742187 215.449218-266.804687 309.894531-268.730468 310.84375-3.578125 1.730468-5.484375 5.703125-4.601563 9.574218.882813 3.875 4.320313 6.628907 8.296875 6.636719h170.664063l-12.304688 42.667969zm-51.203124 17.066406h22.1875l-22.1875 14.242188zm53.710937 0h5.835937l-16.546874 57.371094c-.179688.773438-.246094 1.570312-.195313 2.363281h-82.054687zm-139.042969 76.800782h314.699219l-35.839844 25.601562h-278.859375zm392.722656-.121094-36.941406 25.722656h-47.546875l35.839844-25.601562zm84.914063-76.679688-36.589844 25.601563h-65.757812l36.980469-25.601563zm-95.34375 0-86.296875 59.734375h-150.578125l17.226563-59.734375h93.355468v17.066406h-25.601562c-4.710938 0-8.53125 3.820313-8.53125 8.535157 0 4.710937 3.820312 8.53125 8.53125 8.53125h59.734375c4.714843 0 8.535156-3.820313 8.535156-8.53125 0-4.714844-3.820313-8.535157-8.535156-8.535157h-17.066407v-17.066406zm-149.109375-17.066406 12.183594-42.667969h10.632812v42.667969zm39.882812-49.59375v-233.074219c11.851563 60.800781 25.601563 138.457031 25.601563 171.734375 1.371094 23.300782-8.074219 45.929688-25.601563 61.339844zm-17.066406-10.140625h-71.203125l71.203125-246.824219zm134.253906 17.066406h-99.667968c17.183594-18.46875 26.238281-43.058593 25.148437-68.265625-.957031-24.410156-3.523437-48.730468-7.679687-72.804687 20.1875 50.871093 47.894531 98.425781 82.199218 141.070312zm-366.539062-17.066406c82.589844-51.566406 151.933594-121.789063 202.460938-205.019531l-59.144532 205.019531zm156.160156 17.066406h47.742188l-12.183594 42.667969h-47.863281zm0 0"/></svg>