<?xml version="1.0" encoding="iso-8859-1"?>
<!-- Generator: Adobe Illustrator 19.0.0, SVG Export Plug-In . SVG Version: 6.00 Build 0)  -->
<svg version="1.1" id="Layer_1" xmlns="http://www.w3.org/2000/svg" xmlns:xlink="http://www.w3.org/1999/xlink" x="0px" y="0px"
	 viewBox="0 0 512 512" style="enable-background:new 0 0 512 512;" xml:space="preserve">
<g>
	<g>
		<path d="M506.771,347.415l-103.265-40.727l-40.727-103.265c-1.244-3.155-4.291-5.229-7.682-5.229s-6.438,2.073-7.682,5.229
			l-40.727,103.265l-103.265,40.727c-3.155,1.244-5.229,4.291-5.229,7.682s2.073,6.438,5.229,7.682l103.265,40.727l40.727,103.265
			c1.244,3.155,4.291,5.229,7.682,5.229s6.438-2.073,7.682-5.229l40.727-103.265l103.265-40.727
			c3.155-1.244,5.229-4.291,5.229-7.682S509.927,348.659,506.771,347.415z M394.11,389.458c-2.128,0.839-3.813,2.524-4.653,4.653
			l-34.36,87.123l-34.361-87.123c-0.839-2.128-2.524-3.813-4.653-4.653l-87.123-34.361l87.123-34.361
			c2.128-0.839,3.813-2.524,4.653-4.653l34.361-87.123l34.361,87.123c0.839,2.128,2.524,3.813,4.653,4.653l87.123,34.361
			L394.11,389.458z"/>
	</g>
</g>
<g>
	<g>
		<path d="M355.097,319.312c-1.66,0-3.359,0.121-5.048,0.361c-4.516,0.64-7.658,4.818-7.018,9.335
			c0.64,4.516,4.824,7.662,9.335,7.018c0.925-0.131,1.844-0.197,2.733-0.197c10.624,0,19.269,8.645,19.269,19.269
			s-8.645,19.269-19.269,19.269s-19.269-8.645-19.269-19.269c0-0.889,0.067-1.808,0.197-2.733c0.64-4.516-2.503-8.694-7.018-9.335
			c-4.516-0.64-8.694,2.503-9.335,7.018c-0.239,1.689-0.361,3.388-0.361,5.048c0,19.731,16.054,35.785,35.785,35.785
			c19.731,0,35.785-16.054,35.785-35.785C390.882,335.365,374.828,319.312,355.097,319.312z"/>
	</g>
</g>
<g>
	<g>
		<path d="M308.578,149.221l-103.266-40.727L164.585,5.229C163.341,2.073,160.295,0,156.903,0c-3.391,0-6.438,2.073-7.682,5.229
			l-40.727,103.265L5.229,149.221C2.073,150.465,0,153.512,0,156.903c0,3.391,2.073,6.438,5.229,7.682l103.265,40.727
			l40.727,103.265c1.244,3.155,4.291,5.229,7.682,5.229c3.391,0,6.438-2.073,7.682-5.229l40.727-103.265l103.266-40.727
			c3.155-1.244,5.229-4.291,5.229-7.682C313.807,153.512,311.733,150.465,308.578,149.221z M195.918,191.264
			c-2.128,0.839-3.813,2.524-4.653,4.653l-34.361,87.123l-34.361-87.123c-0.839-2.128-2.524-3.813-4.653-4.653l-87.123-34.361
			l87.124-34.361c2.128-0.839,3.813-2.524,4.653-4.653l34.36-87.123l34.361,87.123c0.839,2.128,2.524,3.813,4.653,4.653
			l87.123,34.361L195.918,191.264z"/>
	</g>
</g>
<g>
	<g>
		<path d="M156.903,121.118c-1.66,0-3.359,0.121-5.048,0.361c-4.516,0.64-7.658,4.818-7.018,9.335s4.822,7.661,9.335,7.018
			c0.925-0.131,1.844-0.197,2.733-0.197c10.624,0,19.269,8.645,19.269,19.269s-8.645,19.269-19.269,19.269
			c-10.624,0-19.269-8.645-19.269-19.269c0-0.889,0.067-1.808,0.197-2.733c0.64-4.516-2.503-8.694-7.018-9.335
			c-4.518-0.642-8.694,2.503-9.335,7.018c-0.239,1.689-0.361,3.388-0.361,5.048c0,19.731,16.054,35.785,35.785,35.785
			c19.731,0,35.785-16.054,35.785-35.785C192.688,137.172,176.635,121.118,156.903,121.118z"/>
	</g>
</g>
<g>
	<g>
		<path d="M506.771,74.898l-49.965-19.705L437.102,5.229C435.857,2.073,432.811,0,429.419,0s-6.438,2.073-7.682,5.229
			l-19.705,49.965l-49.965,19.705c-3.156,1.244-5.229,4.291-5.229,7.682c0,3.391,2.073,6.438,5.229,7.682l49.965,19.705
			l19.705,49.965c1.244,3.155,4.291,5.229,7.682,5.229s6.438-2.073,7.682-5.229l19.705-49.965l49.965-19.705
			c3.156-1.244,5.229-4.291,5.229-7.682C512,79.189,509.927,76.143,506.771,74.898z M447.411,95.92
			c-2.128,0.839-3.813,2.524-4.653,4.653l-13.338,33.822l-13.34-33.823c-0.839-2.128-2.524-3.813-4.653-4.653l-33.822-13.338
			l33.823-13.34c2.128-0.839,3.813-2.524,4.653-4.653l13.338-33.822l13.339,33.822c0.839,2.128,2.524,3.813,4.653,4.653
			l33.822,13.34L447.411,95.92z"/>
	</g>
</g>
<g>
	<g>
		<path d="M159.932,421.737l-49.965-19.705l-19.705-49.965c-1.244-3.156-4.291-5.229-7.682-5.229c-3.391,0-6.438,2.073-7.682,5.229
			l-19.705,49.965L5.229,421.737C2.073,422.981,0,426.028,0,429.419s2.073,6.438,5.229,7.682l49.965,19.705l19.705,49.965
			c1.244,3.156,4.291,5.229,7.682,5.229c3.391,0,6.438-2.073,7.682-5.229l19.705-49.965l49.965-19.705
			c3.155-1.244,5.229-4.291,5.229-7.682S163.088,422.981,159.932,421.737z M100.572,442.759c-2.128,0.839-3.813,2.524-4.653,4.653
			l-13.338,33.822l-13.34-33.823c-0.839-2.128-2.524-3.813-4.653-4.653l-33.822-13.338l33.822-13.34
			c2.128-0.839,3.813-2.524,4.653-4.653l13.34-33.822l13.34,33.822c0.839,2.128,2.524,3.813,4.653,4.653l33.822,13.34
			L100.572,442.759z"/>
	</g>
</g>
<g>
</g>
<g>
</g>
<g>
</g>
<g>
</g>
<g>
</g>
<g>
</g>
<g>
</g>
<g>
</g>
<g>
</g>
<g>
</g>
<g>
</g>
<g>
</g>
<g>
</g>
<g>
</g>
<g>
</g>
</svg>
