<svg xmlns="http://www.w3.org/2000/svg" viewBox="0 0 256 256"><defs><style>.cls-1{fill:#fff;}</style></defs><title>close</title><g id="Слой_2" data-name="Слой 2"><g id="Слой_1-2" data-name="Слой 1"><path class="cls-1" d="M256,25v1a24.34,24.34,0,0,1-5,6.17q-45.6,45.58-91.18,91.18c-4.65,4.64-4.65,4.66,0,9.3q45.58,45.6,91.18,91.18a24.34,24.34,0,0,1,5,6.17v1c-5.36,7.81-12.95,13.5-19.26,20.41A20.75,20.75,0,0,1,231,256h-1a24.34,24.34,0,0,1-6.17-5q-45.59-45.6-91.18-91.18c-4.64-4.65-4.66-4.65-9.3,0L32.17,251A24.34,24.34,0,0,1,26,256H25c-7.81-5.36-13.5-12.95-20.41-19.26A20.75,20.75,0,0,1,0,231v-1a24.34,24.34,0,0,1,5-6.17l91.18-91.18c4.65-4.64,4.65-4.66,0-9.3L5,32.17A24.34,24.34,0,0,1,0,26V25C4.33,18.27,10.76,13.5,16.15,7.76,18.83,4.91,21.37,1.81,25,0h1a24.34,24.34,0,0,1,6.17,5l91.18,91.18c4.64,4.65,4.66,4.65,9.3,0Q178.25,50.59,223.83,5A24.34,24.34,0,0,1,230,0h1c7.81,5.36,13.5,13,20.41,19.26A20.75,20.75,0,0,1,256,25Z"/></g></g></svg>